<?xml version="1.0" encoding="UTF-8" standalone="no"?>
<!-- Created with Inkscape (http://www.inkscape.org/) -->

<svg
   width="122.00592mm"
   height="16.933891mm"
   viewBox="0 0 122.00592 16.933891"
   version="1.1"
   id="svg5"
   xmlns="http://www.w3.org/2000/svg"
   xmlns:svg="http://www.w3.org/2000/svg">
  <g
     id="layer1"
     transform="translate(-49.372895,-60.450918)">
    <text
       xml:space="preserve"
       transform="matrix(0.26458333,0,0,0.26458333,-0.52916663,0)"
       id="text234"
       style="font-size:85.3333px;font-family:Bahnschrift;-inkscape-font-specification:Bahnschrift;text-align:center;white-space:pre;shape-inside:url(#rect236);fill:#FFFFFF;"><tspan
         x="181.60622"
         y="289.05921"
         id="tspan7955">PA   co    ter</tspan></text>
    <path
       style="fill:#FFFFFF;stroke:#FFFFFF;stroke-width:0.167;stroke-linecap:round;stroke-dasharray:none;stroke-opacity:1;image-rendering:auto"
       d="m 123.45503,64.868531 c -1.00185,1.358933 -4.36443,10.09418 -4.56275,11.368693 l -0.0147,0.124487"
       id="path589" />
    <path
       style="fill:#FFFFFF;stroke:#FFFFFF;stroke-width:0.167;stroke-linecap:round;stroke-dasharray:none;stroke-opacity:1;image-rendering:auto"
       d="m 128.33846,64.868531 c -1.00185,1.358933 -4.36443,10.09418 -4.56275,11.368693 l -0.0147,0.124487"
       id="path589-7" />
    <path
       style="fill:#FFFFFF;stroke:#FFFFFF;stroke-width:0.167;stroke-linecap:round;stroke-dasharray:none;stroke-opacity:1;image-rendering:auto"
       d="m 134.98871,64.868531 c -1.00185,1.358933 -4.36443,10.09418 -4.56275,11.368693 l -0.0147,0.124487"
       id="path589-7-2" />
    <path
       style="fill:#FFFFFF;stroke:#FFFFFF;stroke-width:0.167;stroke-linecap:round;stroke-dasharray:none;stroke-opacity:1;image-rendering:auto"
       d="m 139.71331,64.868531 c -1.00185,1.358933 -4.36443,10.09418 -4.56275,11.368693 l -0.0147,0.124487"
       id="path589-7-2-3" />
    <path
       style="fill:#FFFFFF;stroke:#FFFFFF;stroke-width:0.291229;stroke-linecap:round;stroke-dasharray:none;stroke-opacity:1;image-rendering:auto"
       d="m 86.68711,60.708031 c -2.209645,1.87375 -9.626034,13.918244 -10.063442,15.675592 l -0.03243,0.171648"
       id="path589-4" />
    <path
       style="fill:#FFFFFF;stroke:#FFFFFF;stroke-width:0.291229;stroke-linecap:round;stroke-dasharray:none;stroke-opacity:1;image-rendering:auto"
       d="m 77.262326,60.708031 c 2.209645,1.87375 9.626034,13.918244 10.063442,15.675592 l 0.03243,0.171648"
       id="path589-4-6" />
  </g>
</svg>
